# xmcd CD database file
#
# Track frame offsets:
#	150
#	28287
#	69412
#	97277
#	147905
#	175222
#	229362
#	272815
#	311260
#
# Disc length: 4490 seconds
#
# Revision: 1
# Processed by: cddbd v1.5.1PL0 Copyright (c) Steve Scherf et al.
# Submitted via: CDex 1.51
#
DISCID=84118809
DTITLE=Dirty Dozen Brass Band - We Got Robbed! -Live in New Orleans- Disc 1
DYEAR=2003
DGENRE=Jazz
TTITLE0=Charlie Dozen
TTITLE1=Dead Dog in the Street
TTITLE2=Unclean Waters
TTITLE3=We Got Robbed
TTITLE4=Remember When
TTITLE5=Use Your Brain
TTITLE6=Handa Wanda
TTITLE7=My Feet Can't Fail Me Now
TTITLE8=Red Hot Mama
EXTD=YEAR: 2003
EXTT0=
EXTT1=
EXTT2=
EXTT3=
EXTT4=
EXTT5=
EXTT6=
EXTT7=
EXTT8=
PLAYORDER=
